<svg width="24" height="24" viewBox="0 0 24 24" fill="none" xmlns="http://www.w3.org/2000/svg">
<g clip-path="url(#clip0_4654_16997)">
<path d="M14.1095 3.28125L14.191 6.21778C15.8152 7.07752 16.922 8.78438 16.922 10.75V11.4844C16.922 11.8727 16.6072 12.1875 16.2188 12.1875H15.7501C16.3973 12.1875 16.922 12.7122 16.922 13.3594C16.922 14.0066 16.3973 14.5312 15.7501 14.5312H16.2188C16.6072 14.5312 16.922 14.8461 16.922 15.2344V17.0625C16.922 17.1097 16.9205 17.1565 16.9184 17.2032C16.9177 17.2192 16.9167 17.2351 16.9157 17.2509C16.9138 17.2819 16.9115 17.3127 16.9087 17.3435C16.9071 17.3614 16.9056 17.3795 16.9037 17.3973C16.8991 17.439 16.894 17.4806 16.8878 17.5219C16.6658 19.0126 15.3807 20.1562 13.8282 20.1562H19.2657L19.7345 3.28125H14.1095Z" fill="#1F8505"/>
<path d="M3.91401 16.875C5.11509 16.875 5.11509 17.8125 6.31622 17.8125C7.5173 17.8125 7.5173 16.875 8.71842 16.875C9.91959 16.875 9.91959 17.8125 11.1208 17.8125C12.3219 17.8125 12.3219 16.875 13.523 16.875C14.7243 16.875 14.7243 17.8125 15.9256 17.8125C16.3704 17.8125 16.6504 17.6839 16.8878 17.522C16.9101 17.3721 16.9219 17.2187 16.9219 17.0625V15.2344C16.9219 14.8461 16.6071 14.5312 16.2188 14.5312H1.2188C0.830483 14.5312 0.515671 14.8461 0.515671 15.2344V17.0625C0.515671 17.2187 0.527483 17.3721 0.549843 17.5222C0.787171 17.684 1.06706 17.8125 1.51172 17.8125C2.71284 17.8125 2.71284 16.875 3.91401 16.875Z" fill="#1F8505"/>
<path d="M23.4845 3.75C23.7433 3.75 23.9532 3.54009 23.9532 3.28125V0.46875C23.9532 0.209859 23.7433 0 23.4845 0H9.89072C9.63182 0 9.42197 0.209859 9.42197 0.46875V3.28125C9.42197 3.54009 9.63182 3.75 9.89072 3.75H10.8536L10.9317 5.15625H5.64075C2.55633 5.15625 0.0469663 7.66561 0.0469663 10.75V11.4844C0.0469663 11.8173 0.186654 12.1179 0.410294 12.3314C-0.0741587 12.9321 -0.0745337 13.7862 0.410294 14.3873C0.186701 14.6009 0.0469663 14.9015 0.0469663 15.2343V17.0625C0.0469663 18.1004 0.493357 19.0357 1.20393 19.6875H0.515716C0.256826 19.6875 0.0469663 19.8974 0.0469663 20.1562V22.125C0.0469663 23.1588 0.888091 24 1.92197 24H22.0782C23.1121 24 23.9532 23.1588 23.9532 22.125V20.1562C23.9532 19.8974 23.7433 19.6875 23.4845 19.6875H22.1049L22.9904 3.74995L23.4845 3.75ZM10.3595 0.9375H23.0157V2.8125C22.5206 2.8125 10.9344 2.8125 10.3595 2.8125V0.9375ZM0.984466 10.75C0.984466 8.18255 3.07331 6.09375 5.64075 6.09375H11.7969C14.3644 6.09375 16.4532 8.18255 16.4532 10.75V11.4844C16.4532 11.6136 16.3481 11.7188 16.2188 11.7188H15.7501C15.1365 11.7188 1.95108 11.7188 1.21884 11.7188C1.08961 11.7188 0.984466 11.6136 0.984466 11.4844V10.75ZM15.7501 14.0625H1.68759C1.29989 14.0625 0.984466 13.7471 0.984466 13.3594C0.984466 12.9716 1.29989 12.6562 1.68759 12.6562H15.7501C16.1378 12.6562 16.4532 12.9716 16.4532 13.3594C16.4532 13.7471 16.1378 14.0625 15.7501 14.0625ZM0.984466 17.0625V15.2344C0.984466 15.1051 1.08961 15 1.21884 15H16.2188C16.3481 15 16.4532 15.1051 16.4532 15.2344V17.0625C16.4532 18.51 15.2757 19.6875 13.8282 19.6875H3.60947C2.16201 19.6875 0.984466 18.51 0.984466 17.0625ZM23.0157 22.125C23.0157 22.6419 22.5952 23.0625 22.0782 23.0625H1.92197C1.40503 23.0625 0.984466 22.6419 0.984466 22.125V20.625H23.0157V22.125ZM21.166 19.6875H16.2337C16.9443 19.0358 17.3907 18.1004 17.3907 17.0625V15.2344C17.3907 14.9015 17.251 14.6009 17.0274 14.3873C17.5118 13.7867 17.5122 12.9326 17.0274 12.3315C17.251 12.1179 17.3907 11.8173 17.3907 11.4844V10.7501C17.3907 7.69036 14.9212 5.19694 11.8707 5.15723L11.7925 3.75H22.0514L21.166 19.6875Z" fill="#313131"/>
<path d="M3.79697 10.3125C4.05585 10.3125 4.26572 10.1026 4.26572 9.84375C4.26572 9.58487 4.05585 9.375 3.79697 9.375C3.53808 9.375 3.32822 9.58487 3.32822 9.84375C3.32822 10.1026 3.53808 10.3125 3.79697 10.3125Z" fill="#313131"/>
<path d="M6.60947 8.90625C6.86835 8.90625 7.07822 8.69638 7.07822 8.4375C7.07822 8.17862 6.86835 7.96875 6.60947 7.96875C6.35058 7.96875 6.14072 8.17862 6.14072 8.4375C6.14072 8.69638 6.35058 8.90625 6.60947 8.90625Z" fill="#313131"/>
<path d="M11.297 8.4375C11.5559 8.4375 11.7657 8.22763 11.7657 7.96875C11.7657 7.70987 11.5559 7.5 11.297 7.5C11.0381 7.5 10.8282 7.70987 10.8282 7.96875C10.8282 8.22763 11.0381 8.4375 11.297 8.4375Z" fill="#313131"/>
<path d="M8.95322 10.3125C9.2121 10.3125 9.42197 10.1026 9.42197 9.84375C9.42197 9.58487 9.2121 9.375 8.95322 9.375C8.69433 9.375 8.48447 9.58487 8.48447 9.84375C8.48447 10.1026 8.69433 10.3125 8.95322 10.3125Z" fill="#313131"/>
<path d="M13.6407 10.7812C13.8996 10.7812 14.1095 10.5714 14.1095 10.3125C14.1095 10.0536 13.8996 9.84375 13.6407 9.84375C13.3818 9.84375 13.172 10.0536 13.172 10.3125C13.172 10.5714 13.3818 10.7812 13.6407 10.7812Z" fill="#313131"/>
</g>
<defs>
<clipPath id="clip0_4654_16997">
<rect width="24" height="24" fill="white"/>
</clipPath>
</defs>
</svg>
