<svg width="25" height="24" viewBox="0 0 25 24" fill="none" xmlns="http://www.w3.org/2000/svg">
<g clip-path="url(#clip0_4654_17025)">
<path fill-rule="evenodd" clip-rule="evenodd" d="M11.0333 14.6559H4.20243C3.96834 16.0982 4.51382 17.3635 5.62189 18.0031C7.16073 18.8916 9.20179 18.2372 10.4143 16.1372C10.6859 15.6666 10.8929 15.1634 11.0333 14.6559Z" fill="#1F8505"/>
<path fill-rule="evenodd" clip-rule="evenodd" d="M13.9667 14.6559C14.1071 15.1634 14.3141 15.6666 14.5858 16.1372C15.7983 18.2372 17.8394 18.8917 19.3782 18.0032C20.4863 17.3635 21.0318 16.0982 20.7977 14.6559H13.9667Z" fill="#1F8505"/>
<path d="M11.4867 12.6093L7.36067 10.2272C7.21784 10.1447 7.0422 10.1433 6.89815 10.2237C5.9084 10.7752 5.03391 11.6495 4.43574 12.6855C3.79722 13.7915 3.55595 14.936 3.73806 15.9954C3.88998 16.8792 4.33154 17.6281 4.99767 18.1469L3.91946 20.0144L0.889026 20.5381C0.69459 20.5717 0.541966 20.7235 0.507373 20.9178C0.47278 21.1121 0.563576 21.3073 0.73448 21.406L5.11866 23.9372C5.19159 23.9793 5.27245 24 5.35293 24C5.46103 24 5.56842 23.9627 5.65495 23.8898C5.80593 23.7627 5.8611 23.5547 5.79295 23.3694L4.73133 20.4831L5.80954 18.6156C6.20788 18.7773 6.62872 18.8587 7.05706 18.8587C7.46988 18.8587 7.88974 18.783 8.30266 18.6307C9.31111 18.2588 10.1817 17.4776 10.8202 16.3716C11.4184 15.3355 11.7383 14.141 11.721 13.0082C11.7185 12.8432 11.6295 12.6918 11.4867 12.6093ZM2.32446 21.2414L3.91051 20.9673L4.46616 22.478L2.32446 21.2414ZM10.0083 15.9028C9.48821 16.8037 8.76723 17.4601 7.97824 17.7511C7.24812 18.0204 6.49452 17.9658 5.85623 17.5972C5.21798 17.2288 4.79382 16.6034 4.662 15.8364C4.51951 15.0077 4.72749 14.0551 5.24761 13.1542C5.70876 12.3555 6.38544 11.6467 7.12957 11.1763L10.7802 13.284C10.745 14.1637 10.4695 15.104 10.0083 15.9028Z" fill="#313131"/>
<path d="M24.111 20.5381L21.0806 20.0143L20.0024 18.1468C20.6685 17.628 21.11 16.8791 21.262 15.9953C21.4441 14.9359 21.2028 13.7914 20.5643 12.6854C19.9661 11.6494 19.0916 10.7751 18.1019 10.2236C17.9578 10.1433 17.7822 10.1447 17.6394 10.2271L13.5134 12.6092C13.3705 12.6917 13.2816 12.8431 13.279 13.008C13.2618 14.1409 13.5817 15.3354 14.1798 16.3715C14.8184 17.4774 15.6889 18.2586 16.6974 18.6306C17.1104 18.7829 17.5301 18.8585 17.943 18.8585C18.3712 18.8585 18.7921 18.7771 19.1905 18.6155L20.2687 20.483L19.2071 23.3693C19.1389 23.5545 19.1941 23.7626 19.3451 23.8897C19.4316 23.9626 19.539 23.9999 19.6471 23.9999C19.7276 23.9999 19.8084 23.9792 19.8814 23.9371L24.2655 21.4058C24.4365 21.3072 24.5273 21.112 24.4927 20.9177C24.4581 20.7235 24.3055 20.5717 24.111 20.5381ZM17.0218 17.751C16.2328 17.46 15.5119 16.8037 14.9917 15.9028C14.5306 15.104 14.2551 14.1636 14.2198 13.2839L17.8704 11.1762C18.6145 11.6467 19.2912 12.3554 19.7524 13.1542C20.2725 14.0551 20.4805 15.0077 20.338 15.8364C20.2062 16.6034 19.782 17.2287 19.1438 17.5972C18.5055 17.9657 17.7519 18.0203 17.0218 17.751ZM20.5339 22.4779L21.0895 20.9672L22.6756 21.2414L20.5339 22.4779Z" fill="#313131"/>
<path d="M0.734485 0.874817C0.983811 1.01877 1.23557 1.15799 1.48959 1.29242L1.77407 5.29541C1.78668 5.47251 1.89824 5.62733 2.06225 5.69525C2.12014 5.71925 2.18103 5.73093 2.24155 5.73093C2.35245 5.73093 2.46195 5.69155 2.54876 5.61632L5.58136 2.98614C6.13087 3.15512 6.68643 3.304 7.24681 3.43239L8.55803 7.22651C8.61602 7.39432 8.76386 7.51492 8.93987 7.53813C8.96041 7.54085 8.98084 7.54211 9.00114 7.54211C9.1554 7.54211 9.30151 7.46589 9.38935 7.33596L11.6372 4.01147C11.9244 4.02207 12.212 4.02736 12.5 4.02736C12.7879 4.02736 13.0755 4.02207 13.3628 4.01147L15.6106 7.33596C15.6985 7.46589 15.8446 7.54211 15.9989 7.54211C16.0192 7.54211 16.0396 7.5408 16.0601 7.53813C16.2361 7.51492 16.384 7.39432 16.442 7.22651L17.7532 3.43243C18.3136 3.304 18.8691 3.15517 19.4186 2.98619L22.4512 5.61636C22.538 5.69165 22.6475 5.73097 22.7584 5.73097C22.819 5.73097 22.8798 5.71925 22.9377 5.6953C23.1018 5.62738 23.2134 5.4726 23.2259 5.29546L23.5104 1.29247C23.7644 1.15803 24.0162 1.01882 24.2655 0.874864C24.4897 0.745443 24.5665 0.458759 24.4371 0.234558C24.3076 0.0103099 24.021 -0.0664706 23.7968 0.0629969C20.3669 2.04326 16.4605 3.08997 12.5 3.08997C8.53952 3.08997 4.63313 2.04316 1.20323 0.0629032C0.979077 -0.0664706 0.692392 0.0103099 0.562925 0.234464C0.433457 0.458665 0.510284 0.74535 0.734485 0.874817ZM15.8622 6.0342L14.4503 3.94613C15.2006 3.88355 15.9466 3.78498 16.6857 3.6512L15.8622 6.0342ZM22.3573 4.2938L20.4525 2.64185C21.1596 2.38811 21.8549 2.10045 22.536 1.7795L22.3573 4.2938ZM2.64275 4.2938L2.46406 1.77954C3.1451 2.10045 3.84049 2.38816 4.54745 2.64185L2.64275 4.2938ZM9.13787 6.0342L8.31433 3.6512C9.05345 3.78498 9.79951 3.88351 10.5498 3.94613L9.13787 6.0342Z" fill="#313131"/>
<path d="M12.4998 7.95715C12.241 7.95715 12.0311 8.16701 12.0311 8.4259V9.12902C12.0311 9.38791 12.241 9.59776 12.4998 9.59776C12.7587 9.59776 12.9686 9.38791 12.9686 9.12902V8.4259C12.9686 8.16701 12.7587 7.95715 12.4998 7.95715Z" fill="#313131"/>
<path d="M14.5058 9.00938L14.1542 9.61832C14.0248 9.84253 14.1016 10.1292 14.3258 10.2586C14.3996 10.3013 14.4802 10.3215 14.5597 10.3215C14.7217 10.3215 14.8793 10.2374 14.9661 10.0871L15.3177 9.47812C15.4471 9.25392 15.3703 8.96724 15.1461 8.83782C14.9219 8.7083 14.6352 8.78518 14.5058 9.00938Z" fill="#313131"/>
<path d="M9.85366 8.8378C9.62946 8.96726 9.55263 9.2539 9.6821 9.4781L10.0337 10.087C10.1205 10.2374 10.278 10.3215 10.44 10.3215C10.5195 10.3215 10.6001 10.3012 10.674 10.2586C10.8982 10.1292 10.975 9.84251 10.8455 9.6183L10.494 9.00936C10.3645 8.78516 10.0778 8.70833 9.85366 8.8378Z" fill="#313131"/>
<path d="M12.4998 19.9805C12.241 19.9805 12.0311 20.1904 12.0311 20.4493V21.1524C12.0311 21.4113 12.241 21.6211 12.4998 21.6211C12.7587 21.6211 12.9686 21.4113 12.9686 21.1524V20.4493C12.9686 20.1904 12.7587 19.9805 12.4998 19.9805Z" fill="#313131"/>
<path d="M10.674 19.3197C10.4498 19.1903 10.1631 19.267 10.0337 19.4912L9.6821 20.1002C9.55263 20.3244 9.62946 20.611 9.85366 20.7405C9.92748 20.7831 10.0081 20.8034 10.0876 20.8034C10.2496 20.8034 10.4072 20.7193 10.494 20.5689L10.8455 19.96C10.975 19.7358 10.8982 19.4491 10.674 19.3197Z" fill="#313131"/>
<path d="M14.9661 19.4912C14.8366 19.267 14.55 19.1902 14.3258 19.3197C14.1016 19.4491 14.0248 19.7358 14.1542 19.96L14.5058 20.5689C14.5926 20.7193 14.7501 20.8033 14.9121 20.8033C14.9916 20.8033 15.0723 20.7831 15.1461 20.7405C15.3703 20.6111 15.4471 20.3244 15.3177 20.1002L14.9661 19.4912Z" fill="#313131"/>
</g>
<defs>
<clipPath id="clip0_4654_17025">
<rect width="24" height="24" fill="white" transform="translate(0.5)"/>
</clipPath>
</defs>
</svg>
