<svg width="24" height="24" viewBox="0 0 24 24" fill="none" xmlns="http://www.w3.org/2000/svg">
<g clip-path="url(#clip0_4654_16984)">
<path d="M16.6899 9.16629L18.0889 7.76839C17.6321 7.312 17.6321 6.57201 18.0889 6.11563L15.8375 3.86603C15.3808 4.32242 14.6402 4.32242 14.1834 3.86603L8.87891 9.16634H16.6899V9.16629Z" fill="#1F8505"/>
<path d="M21.1687 18.6069V22.334C21.1687 22.7357 20.8415 23.0625 20.4392 23.0625H4.79428V9.63462H20.4392C20.8414 9.63462 21.1687 9.9614 21.1687 10.3631V14.0902H22.1062V10.3631C22.1062 9.55362 21.5255 8.87714 20.7587 8.7278L21.5381 7.94904C21.8074 7.67997 21.9557 7.32211 21.9557 6.94152C21.9557 6.56094 21.8074 6.20308 21.5381 5.93401L16.0161 0.416473C15.4603 -0.138824 14.5562 -0.138824 14.0005 0.416473L5.7133 8.69709H2.624C1.70485 8.69709 0.957031 9.44444 0.957031 10.3631V22.3341C0.957031 23.2527 1.7048 24.0001 2.624 24.0001H20.4392C21.3584 24.0001 22.1062 23.2527 22.1062 22.3341V18.6069H21.1687V18.6069ZM14.6631 1.07968C14.8534 0.88955 15.1631 0.88955 15.3534 1.07968L20.8754 6.59722C20.9674 6.68919 21.0182 6.81149 21.0182 6.94152C21.0182 7.07156 20.9674 7.19386 20.8754 7.28583L19.463 8.69705H7.03971L14.6631 1.07968ZM3.85676 23.0625H2.624C2.2218 23.0625 1.89456 22.7357 1.89456 22.334V10.3631C1.89456 9.9614 2.2218 9.63462 2.624 9.63462H3.85676V23.0625Z" fill="#313131"/>
<path d="M23.0425 19.0763H17.6138C16.1077 19.0763 14.8867 17.8553 14.8867 16.3492C14.8867 14.8431 16.1077 13.6221 17.6138 13.6221H23.0425V19.0763Z" fill="#1F8505"/>
<path d="M17.9295 17.9061C17.0702 17.9061 16.3711 17.2074 16.3711 16.3486C16.3711 15.4897 17.0702 14.791 17.9295 14.791C18.7888 14.791 19.488 15.4898 19.488 16.3486C19.488 17.2074 18.7888 17.9061 17.9295 17.9061ZM17.9295 15.7285C17.5871 15.7285 17.3086 16.0067 17.3086 16.3485C17.3086 16.6904 17.5871 16.9686 17.9295 16.9686C18.2719 16.9686 18.5504 16.6904 18.5504 16.3485C18.5504 16.0067 18.2719 15.7285 17.9295 15.7285Z" fill="#313131"/>
</g>
<defs>
<clipPath id="clip0_4654_16984">
<rect width="24" height="24" fill="white"/>
</clipPath>
</defs>
</svg>
