<svg width="24" height="24" viewBox="0 0 24 24" fill="none" xmlns="http://www.w3.org/2000/svg">
<path d="M23.4845 3.75C23.7434 3.75 23.9533 3.54009 23.9533 3.28125V0.46875C23.9533 0.209859 23.7434 0 23.4845 0H9.89078C9.63189 0 9.42203 0.209859 9.42203 0.46875V3.28125C9.42203 3.54009 9.63189 3.75 9.89078 3.75H10.8536L10.9318 5.15625H5.64081C2.55639 5.15625 0.0470274 7.66561 0.0470274 10.75V11.4844C0.0470274 11.8173 0.186715 12.1179 0.410355 12.3314C-0.0740976 12.9321 -0.0744726 13.7862 0.410355 14.3873C0.186762 14.6009 0.0470274 14.9015 0.0470274 15.2343V17.0625C0.0470274 18.1004 0.493418 19.0357 1.204 19.6875H0.515777C0.256887 19.6875 0.0470274 19.8974 0.0470274 20.1562V22.125C0.0470274 23.1588 0.888152 24 1.92203 24H22.0783C23.1122 24 23.9533 23.1588 23.9533 22.125V20.1562C23.9533 19.8974 23.7434 19.6875 23.4845 19.6875H22.105L22.9905 3.74995L23.4845 3.75ZM10.3595 0.9375H23.0158V2.8125C22.5207 2.8125 10.9344 2.8125 10.3595 2.8125V0.9375ZM0.984527 10.75C0.984527 8.18255 3.07337 6.09375 5.64081 6.09375H11.797C14.3645 6.09375 16.4533 8.18255 16.4533 10.75V11.4844C16.4533 11.6136 16.3481 11.7188 16.2189 11.7188H15.7502C15.1366 11.7188 1.95114 11.7188 1.2189 11.7188C1.08967 11.7188 0.984527 11.6136 0.984527 11.4844V10.75ZM15.7502 14.0625H1.68765C1.29995 14.0625 0.984527 13.7471 0.984527 13.3594C0.984527 12.9716 1.29995 12.6562 1.68765 12.6562H15.7502C16.1379 12.6562 16.4533 12.9716 16.4533 13.3594C16.4533 13.7471 16.1379 14.0625 15.7502 14.0625ZM0.984527 17.0625V15.2344C0.984527 15.1051 1.08967 15 1.2189 15H16.2189C16.3481 15 16.4533 15.1051 16.4533 15.2344V17.0625C16.4533 18.51 15.2757 19.6875 13.8283 19.6875H3.60953C2.16207 19.6875 0.984527 18.51 0.984527 17.0625ZM23.0158 22.125C23.0158 22.6419 22.5952 23.0625 22.0783 23.0625H1.92203C1.40509 23.0625 0.984527 22.6419 0.984527 22.125V20.625H23.0158V22.125ZM21.1661 19.6875H16.2338C16.9444 19.0358 17.3908 18.1004 17.3908 17.0625V15.2344C17.3908 14.9015 17.2511 14.6009 17.0274 14.3873C17.5119 13.7867 17.5123 12.9326 17.0274 12.3315C17.2511 12.1179 17.3908 11.8173 17.3908 11.4844V10.7501C17.3908 7.69036 14.9213 5.19694 11.8708 5.15723L11.7925 3.75H22.0515L21.1661 19.6875Z" fill="#313131"/>
</svg>
