<svg width="24" height="24" viewBox="0 0 24 24" fill="none" xmlns="http://www.w3.org/2000/svg">
<path d="M22.5541 18.1847C22.1597 17.7829 21.6864 17.4604 21.1702 17.2361C21.0258 17.1734 20.8765 17.1262 20.7299 17.0696C16.7129 15.5185 16.0098 12.3393 15.5897 10.4398C15.5148 10.1008 15.4516 9.81525 15.378 9.58191L20.0278 0.685922C20.1038 0.540609 20.0983 0.366188 20.0134 0.225938C19.9284 0.0856875 19.7764 0 19.6124 0H11.3332C11.1587 0 10.9986 0.0969375 10.9178 0.251625L8.28509 5.28825C6.839 5.15503 5.54459 5.55769 4.52492 6.46284C3.30355 7.54706 2.57066 9.3173 2.52284 11.2591C1.87695 11.4158 1.31492 11.885 1.07403 12.5057C0.791656 13.2333 1.00048 13.9895 1.64694 14.5803C1.64975 14.5829 1.65256 14.5853 1.65542 14.5879L4.82206 17.3438H0.6875C0.428609 17.3438 0.21875 17.5536 0.21875 17.8125C0.21875 18.0714 0.428609 18.2812 0.6875 18.2812H5.89925L9.56942 21.4754C10.2922 22.1319 11.1315 22.6611 12.0819 23.0625H7.40548C7.14659 23.0625 6.93673 23.2724 6.93673 23.5313C6.93673 23.7902 7.14659 24 7.40548 24H17.2938H21.0899C21.9078 24 22.601 23.6962 23.0947 23.1213C23.522 22.6238 23.7645 21.9547 23.7776 21.2373C23.7987 20.0942 23.3643 19.0101 22.5541 18.1847ZM22.8161 20.7598H17.2366C16.8179 20.7598 16.4182 20.7421 16.0363 20.7075C16.285 19.0505 17.696 17.8069 19.4184 17.8069C20.3405 17.8069 21.2396 18.184 21.885 18.8415C22.4072 19.3735 22.7289 20.0422 22.8161 20.7598ZM11.6171 0.9375H18.8385L14.5701 9.10369C14.3853 9.12286 14.1991 9.14564 14.0171 9.16819C12.0798 9.40805 10.2483 9.63473 9.05539 5.83819L11.6171 0.9375ZM5.14723 7.16395C5.96502 6.438 7.01309 6.11466 8.19359 6.22106C8.81263 8.13323 9.68675 9.32752 10.8605 9.86724C11.9509 10.3687 13.1098 10.2252 14.1322 10.0986C14.2707 10.0815 14.4051 10.0648 14.5367 10.05C14.5807 10.219 14.6256 10.4221 14.6743 10.6422C14.7167 10.8337 14.7636 11.0456 14.8183 11.2728H14.1766C13.9177 11.2728 13.7079 11.4827 13.7079 11.7416C13.7079 12.0005 13.9177 12.2103 14.1766 12.2103H15.0732C15.1805 12.5575 15.3099 12.9223 15.469 13.2938H14.6629C14.404 13.2938 14.1942 13.5037 14.1942 13.7625C14.1942 14.0214 14.404 14.2313 14.6629 14.2313H15.9343C15.9575 14.2719 15.9812 14.3124 16.0053 14.3529C16.2072 14.6925 16.4309 15.0136 16.676 15.3161H16.0316C15.7727 15.3161 15.5628 15.5259 15.5628 15.7848C15.5628 16.0437 15.7727 16.2536 16.0316 16.2536H17.5724C17.8602 16.5103 18.1683 16.7485 18.4965 16.968C17.7025 17.1384 16.97 17.5275 16.3759 18.1066C15.686 18.7789 15.247 19.6437 15.1078 20.5822C13.7478 20.3336 12.6519 19.8223 11.7894 19.0375L3.45744 11.4612C3.45711 9.70542 4.08158 8.10989 5.14723 7.16395ZM21.0899 23.0625H17.2938C14.2507 23.0625 11.8628 22.2939 10.1963 20.7782C10.1938 20.7759 10.1912 20.7736 10.1886 20.7713L2.27534 13.8846C1.92289 13.5606 1.80964 13.2012 1.94792 12.8449C2.08423 12.4936 2.44414 12.2179 2.8257 12.154L11.1585 19.731C12.6127 21.0542 14.6009 21.6974 17.2366 21.6974H22.7816C22.6117 22.4326 22.0681 23.0625 21.0899 23.0625Z" fill="#313131"/>
</svg>
